HIERARCHY
ROOT Hips
{
	OFFSET	0.00	0.00	0.00
	CHANNELS 6 Xposition Yposition Zposition Zrotation Xrotation Yrotation
	JOINT LeftUpLeg
	{
		OFFSET	 0.126116	-0.014019	-0.065224
		CHANNELS 3 Zrotation Xrotation Yrotation
		JOINT LeftLeg
		{
			OFFSET	 0.000000	 0.000000	 0.569914
			CHANNELS 3 Zrotation Xrotation Yrotation
			JOINT LeftFoot
			{
				OFFSET	 0.000000	 0.000000	 0.544423
				CHANNELS 3 Zrotation Xrotation Yrotation
				JOINT LeftToeBase
				{
					OFFSET	 0.000000	 0.000000	 0.207117
					CHANNELS 3 Zrotation Xrotation Yrotation
					End Site
					{
						OFFSET	 0.000000	 0.000000	 0.207117
					}
				}
			}
		}
	}
	JOINT RightUpLeg
	{
		OFFSET	-0.124023	-0.008373	-0.065224
		CHANNELS 3 Zrotation Xrotation Yrotation
		JOINT RightLeg
		{
			OFFSET	 0.000000	 0.000000	 0.570047
			CHANNELS 3 Zrotation Xrotation Yrotation
			JOINT RightFoot
			{
				OFFSET	 0.000000	 0.000000	 0.544354
				CHANNELS 3 Zrotation Xrotation Yrotation
				JOINT RightToeBase
				{
					OFFSET	 0.000000	 0.000000	 0.207540
					CHANNELS 3 Zrotation Xrotation Yrotation
					End Site
					{
						OFFSET	 0.000000	 0.000000	 0.207540
					}
				}
			}
		}
	}
	JOINT Spine
	{
		OFFSET	 0.000184	-0.007763	 0.117403
		CHANNELS 3 Zrotation Xrotation Yrotation
		JOINT Spine1
		{
			OFFSET	 0.000000	 0.000000	 0.137269
			CHANNELS 3 Zrotation Xrotation Yrotation
			JOINT Spine2
			{
				OFFSET	 0.000000	 0.000000	 0.156879
				CHANNELS 3 Zrotation Xrotation Yrotation
				JOINT LeftShoulder
				{
					OFFSET	 0.080501	-0.002496	 0.160144
					CHANNELS 3 Zrotation Xrotation Yrotation
					JOINT LeftArm
					{
						OFFSET	 0.000000	 0.000000	 0.164363
						CHANNELS 3 Zrotation Xrotation Yrotation
						JOINT LeftForeArm
						{
							OFFSET	 0.000000	 0.000000	 0.364576
							CHANNELS 3 Zrotation Xrotation Yrotation
							JOINT LeftHand
							{
								OFFSET	 0.000000	 0.000000	 0.360812
								CHANNELS 3 Zrotation Xrotation Yrotation
								JOINT LeftHandIndex1
								{
									OFFSET	 0.000000	 0.000000	 0.086006
									CHANNELS 3 Zrotation Xrotation Yrotation
									JOINT LeftHandIndex2
									{
										OFFSET	 0.000000	 0.000000	 0.047236
										CHANNELS 3 Zrotation Xrotation Yrotation
										JOINT LeftHandIndex3
										{
											OFFSET	-0.004284	-0.000551	 0.038166
											CHANNELS 3 Zrotation Xrotation Yrotation
											End Site
											{
												OFFSET	-0.004284	-0.000551	 0.038166
											}
										}
									}
								}
							}
						}
					}
				}
				JOINT Neck
				{
					OFFSET	 0.000000	 0.000000	 0.176489
					CHANNELS 3 Zrotation Xrotation Yrotation
					JOINT Head
					{
						OFFSET	 0.000000	-0.001747	 0.077940
						CHANNELS 3 Zrotation Xrotation Yrotation
						End Site
						{
							OFFSET	 0.000000	-0.001747	 0.077940
						}
					}
				}
				JOINT RightShoulder
				{
					OFFSET	-0.080363	 0.000306	 0.159706
					CHANNELS 3 Zrotation Xrotation Yrotation
					JOINT RightArm
					{
						OFFSET	 0.000000	 0.000000	 0.164196
						CHANNELS 3 Zrotation Xrotation Yrotation
						JOINT RightForeArm
						{
							OFFSET	 0.000000	 0.000000	 0.365611
							CHANNELS 3 Zrotation Xrotation Yrotation
							JOINT RightHand
							{
								OFFSET	 0.000000	 0.000000	 0.360648
								CHANNELS 3 Zrotation Xrotation Yrotation
								JOINT RightHandIndex1
								{
									OFFSET	 0.000000	 0.000000	 0.069977
									CHANNELS 3 Zrotation Xrotation Yrotation
									JOINT RightHandIndex2
									{
										OFFSET	 0.000000	 0.000000	 0.052305
										CHANNELS 3 Zrotation Xrotation Yrotation
										JOINT RightHandIndex3
										{
											OFFSET	 0.009002	-0.000782	 0.042196
											CHANNELS 3 Zrotation Xrotation Yrotation
											End Site
											{
												OFFSET	 0.009002	-0.000782	 0.042196
											}
										}
									}
								}
							}
						}
					}
				}
			}
		}
	}
}
MOTION
Frames:    8
Frame Time: 0.03333334
 0.000298	 0.019632	 1.272483	-0.003036	 0.003594	 0.173707	-8.597825	-1.771447	 179.090300	 1.466408	-12.494810	-0.730444	-5.129704	 71.505360	-1.196010	-2.385833	 28.452760	 0.000004	 8.438632	-1.864968	-179.338400	-1.458071	-12.104610	 0.693931	 4.908995	 71.134650	 1.232072	 2.384658	 28.388730	 0.000004	-4.824761	 2.683257	 0.296157	-2.160273	 3.802185	-0.801571	 6.539641	-4.672994	 1.419175	-91.776210	 78.527430	-180.000000	 59.368670	 40.658340	-62.451670	-8.506557	 0.194437	-0.729462	-31.669890	-19.561550	-4.867265	-2.635965	 4.993658	 6.788941	-5.165319	 0.784187	 3.516649	-5.225038	 0.466231	 0.424329	-0.000002	-3.783157	-0.089647	 6.359395	 4.548474	-0.252827	 89.782070	 78.203890	-180.000000	-64.592450	 42.128060	 56.606870	 7.641702	 5.387774	 12.545220	 32.610610	-20.267830	 9.696659	 6.112037	 4.509576	-0.364401	 4.968462	 1.518543	-9.347576	 5.168945	 0.703820	 2.021906
 0.000304	 0.019544	 1.273950	-0.002762	 0.004094	 0.174398	-8.469464	-1.771407	 179.079500	 1.466508	-12.487130	-0.729980	-5.139339	 71.259100	-1.181920	-2.385833	 28.452760	 0.000004	 8.310097	-1.863063	-179.329500	-1.458203	-12.094060	 0.693306	 4.917534	 70.887260	 1.219796	 2.384658	 28.388730	 0.000004	-5.434100	 2.627580	 0.287271	-2.151377	 3.994971	-0.784096	 6.511612	-4.922903	 1.429601	-91.776120	 78.527430	 179.999900	 59.384760	 40.669870	-62.318450	-8.899055	 0.204184	-1.029949	-32.852850	-22.715550	-5.356879	-2.635965	 4.993658	 6.788941	-5.165319	 0.784187	 3.516649	-5.225038	 0.466231	 0.424329	-0.000002	-3.783157	-0.089647	 6.321982	 4.435510	-0.245089	 89.782100	 78.203850	 180.000000	-64.241350	 41.637920	 57.779110	 7.511985	 5.137608	 12.350720	 34.037930	-23.712460	 10.101460	 6.112037	 4.509576	-0.364401	 4.968462	 1.518543	-9.347576	 5.168945	 0.703820	 2.021906
 0.000311	 0.019450	 1.275578	-0.002449	 0.004650	 0.174467	-8.328881	-1.770323	 179.068200	 1.466647	-12.476270	-0.729323	-5.148847	 70.988470	-1.167389	-2.385833	 28.452760	 0.000004	 8.169384	-1.861219	-179.319200	-1.458339	-12.083150	 0.692661	 4.926263	 70.616980	 1.206867	 2.384658	 28.388730	 0.000004	-6.138767	 2.567066	 0.276957	-2.133685	 4.204482	-0.762121	 6.456640	-5.196223	 1.435311	-91.776220	 78.527470	-180.000000	 59.376850	 40.681470	-62.138390	-9.359401	 0.219234	-1.380206	-34.305970	-26.290610	-6.088721	-2.635965	 4.993658	 6.788941	-5.165319	 0.784187	 3.516649	-5.225038	 0.466231	 0.424329	-0.000002	-3.783157	-0.089647	 6.257470	 4.315474	-0.236012	 89.782040	 78.203870	-180.000000	-63.515860	 40.790590	 59.191040	 7.166470	 5.011077	 12.583990	 35.878750	-27.765050	 10.712460	 6.112037	 4.509576	-0.364401	 4.968462	 1.518543	-9.347576	 5.168945	 0.703820	 2.021906
 0.000315	 0.019368	 1.277064	-0.002129	 0.005167	 0.173734	-8.199975	-1.768503	 179.058500	 1.466807	-12.464340	-0.728601	-5.156445	 70.739910	-1.154920	-2.385833	 28.452760	 0.000004	 8.040610	-1.860024	-179.309100	-1.458445	-12.074330	 0.692144	 4.933940	 70.370350	 1.195295	 2.384658	 28.388730	 0.000004	-6.813153	 2.512194	 0.267240	-2.110216	 4.394428	-0.739598	 6.384121	-5.445545	 1.435107	-91.776180	 78.527450	 180.000000	 59.343180	 40.683440	-61.931420	-9.806636	 0.241321	-1.726760	-35.780900	-29.541560	-6.953235	-2.635965	 4.993658	 6.788941	-5.165319	 0.784187	 3.516649	-5.225038	 0.466231	 0.424329	-0.000002	-3.783157	-0.089647	 6.177081	 4.209183	-0.227232	 89.782120	 78.203900	 180.000000	-62.112670	 39.707670	 59.620950	 6.530872	 5.653773	 14.740730	 37.679170	-31.515960	 11.471380	 6.112037	 4.509576	-0.364401	 4.968462	 1.518543	-9.347576	 5.168945	 0.703820	 2.021906
 0.000316	 0.019294	 1.278584	-0.001821	 0.005680	 0.172245	-8.068888	-1.765930	 179.049200	 1.466986	-12.450480	-0.727767	-5.163279	 70.486730	-1.142933	-2.385833	 28.452760	 0.000004	 7.909841	-1.859363	-179.298100	-1.458539	-12.066690	 0.691691	 4.941364	 70.120650	 1.183807	 2.384658	 28.388730	 0.000004	-7.522547	 2.457190	 0.257160	-2.079234	 4.584874	-0.714602	 6.288845	-5.697029	 1.429400	-91.776150	 78.527420	 180.000000	 59.275670	 40.678260	-61.673980	-10.284930	 0.270083	-2.095886	-37.410490	-32.670020	-8.019030	-2.635965	 4.993658	 6.788941	-5.165319	 0.784187	 3.516649	-5.225038	 0.466231	 0.424329	-0.000002	-3.783157	-0.089647	 6.074705	 4.104927	-0.217920	 89.782200	 78.203850	 179.999900	-60.143420	 38.380470	 60.672390	 5.576754	 6.105774	 16.775180	 39.194100	-35.288540	 12.263490	 6.112037	 4.509576	-0.364401	 4.968462	 1.518543	-9.347576	 5.168945	 0.703820	 2.021906
 0.000316	 0.019226	 1.280073	-0.001496	 0.006176	 0.170099	-7.940659	-1.762704	 179.040800	 1.467182	-12.435240	-0.726849	-5.169136	 70.238600	-1.131853	-2.385833	 28.452760	 0.000004	 7.782026	-1.859273	-179.286900	-1.458617	-12.060500	 0.691325	 4.948272	 69.877500	 1.172822	 2.384658	 28.388730	 0.000004	-8.235451	 2.404241	 0.247155	-2.042046	 4.768156	-0.688188	 6.174744	-5.940429	 1.418265	-91.776210	 78.527470	-180.000000	 59.179760	 40.657920	-61.373180	-10.864950	 0.307779	-2.478184	-39.000760	-35.386150	-9.193059	-2.635965	 4.993658	 6.788941	-5.165319	 0.784187	 3.516649	-5.225038	 0.466231	 0.424329	-0.000002	-3.783157	-0.089647	 5.954727	 4.006846	-0.208500	 89.782100	 78.203900	 180.000000	-57.959270	 36.976010	 63.355250	 4.406907	 5.651439	 16.841300	 40.107330	-38.849660	 12.844080	 6.112037	 4.509576	-0.364401	 4.968462	 1.518543	-9.347576	 5.168945	 0.703820	 2.021906
 0.000315	 0.019160	 1.281464	-0.001171	 0.006644	 0.167305	-7.802088	-1.759296	 179.032100	 1.467396	-12.418940	-0.725863	-5.157278	 69.995470	-1.125719	-2.385833	 28.452760	 0.000004	 7.668833	-1.859595	-179.276200	-1.458672	-12.055970	 0.691057	 4.970076	 69.640250	 1.158569	 2.384658	 28.388730	 0.000004	-8.947277	 2.353419	 0.237321	-1.999054	 4.944205	-0.660653	 6.043130	-6.175561	 1.401917	-91.776240	 78.527430	-180.000000	 59.053820	 40.632730	-61.034660	-11.388690	 0.352441	-2.866459	-40.659720	-37.564590	-10.433750	-2.635965	 4.993658	 6.788941	-5.165319	 0.784187	 3.516649	-5.225038	 0.466231	 0.424329	-0.000002	-3.783157	-0.089647	 5.818526	 3.914675	-0.199033	 89.782160	 78.203900	 179.999900	-55.454640	 35.506930	 66.301090	 3.062337	 5.088769	 16.675240	 40.638870	-41.901630	 13.306970	 6.112037	 4.509576	-0.364401	 4.968462	 1.518543	-9.347576	 5.168945	 0.703820	 2.021906
 0.000312	 0.019084	 1.282862	-0.000821	 0.007136	 0.163407	-7.676223	-1.753984	 179.025200	 1.467654	-12.399020	-0.724661	-5.178781	 69.725870	-1.110839	-2.385833	 28.452760	 0.000004	 7.530198	-1.860965	-179.262700	-1.458712	-12.052650	 0.690861	 4.976095	 69.379680	 1.147304	 2.384658	 28.388730	 0.000004	-9.742814	 2.298617	 0.226541	-1.944049	 5.134079	-0.628480	 5.875154	-6.430638	 1.377434	-91.776220	 78.527430	-180.000000	 58.883110	 40.590810	-60.612710	-11.990460	 0.411818	-3.310718	-42.411880	-39.209080	-11.762250	-2.635965	 4.993658	 6.788941	-5.165319	 0.784187	 3.516649	-5.225038	 0.466231	 0.424329	-0.000002	-3.783157	-0.089647	 5.646946	 3.817499	-0.188357	 89.782150	 78.203850	 180.000000	-51.991920	 33.676590	 68.745410	 1.285337	 4.943922	 18.034520	 40.719270	-44.481740	 13.576500	 6.112037	 4.509576	-0.364401	 4.968462	 1.518543	-9.347576	 5.168945	 0.703820	 2.021906
